Exact Audio Copy V0.99 prebeta 1 from 25. May 2007

EAC 抓取日志文件从3. 十二月 2010, 0:34

于淑珍 / 20世纪中华歌坛名人百集珍藏版

使用驱动器  ：BENQ    DVD-ROM 16X   Adapter: 0  ID: 1

读取模式     : 保护
使用精确流   : 是
废除音频缓冲 : 是
使用 C2 指针 : 否

读取偏移校正                   : 738
读取 Lead-In 和 Lead-Out       : 否
用静音填充抓取中丢失偏移的采样 : 是
去除首尾静音块                 : 否
已用接口                       : 已安装外部 ASPI 接口

所用输出格式 : 内部 WAV 函数
样本格式     : 44.100 Hz;16 Bit;立体声


被抓轨 CD 的 TOC

     音轨 |   开始   |   长度   | 起始扇区 | 结尾扇区 
    --------------------------------------------------
       1  |  0:00.00 |  2:48.40 |       0  |   12639  
       2  |  2:48.40 |  3:15.50 |   12640  |   27314  
       3  |  6:04.15 |  2:57.02 |   27315  |   40591  
       4  |  9:01.17 |  3:37.28 |   40592  |   56894  
       5  | 12:38.45 |  3:28.30 |   56895  |   72524  
       6  | 16:07.00 |  4:22.00 |   72525  |   92174  
       7  | 20:29.00 |  2:13.62 |   92175  |  102211  
       8  | 22:42.62 |  8:31.10 |  102212  |  140546  
       9  | 31:13.72 |  1:51.40 |  140547  |  148911  
      10  | 33:05.37 |  3:26.28 |  148912  |  164389  
      11  | 36:31.65 |  2:04.37 |  164390  |  173726  
      12  | 38:36.27 |  5:03.65 |  173727  |  196516  
      13  | 43:40.17 |  3:31.05 |  196517  |  212346  
      14  | 47:11.22 |  4:47.65 |  212347  |  233936  
      15  | 51:59.12 |  2:59.70 |  233937  |  247431  
      16  | 54:59.07 |  5:25.70 |  247432  |  271876  


范围状态及错误

已选择范围

     文件名 E:\文件夹\20世纪中华歌坛名人百集珍藏版-于淑珍[lwg188原创]\于淑珍 - 20世纪中华歌坛名人百集珍藏版.wav

     峰值电平 90.6 %
     范围质量 100.0 %
     复制 CRC B3A0B3A1
     复制成功

没有错误发生

状态报告结尾
